<svg width="14" height="20" viewBox="0 0 14 20" fill="none" xmlns="http://www.w3.org/2000/svg">
<circle cx="7" cy="7" r="3" fill="#FFF7E2"/>
<path d="M4.78204 16.1076C4.30061 15.3353 3.74839 14.6191 3.20539 13.9148L3.18424 13.8874C2.63184 13.1709 2.08985 12.4659 1.62277 11.7087L1.62257 11.7084C0.735199 10.275 0.25 8.69014 0.25 7C0.25 3.26807 3.26807 0.25 7 0.25C10.7319 0.25 13.75 3.26807 13.75 7C13.75 8.69006 13.2649 10.2745 12.3681 11.7074L12.3668 11.7094C11.8999 12.4713 11.3579 13.1787 10.8058 13.8949L10.7577 13.9571C10.2236 14.6498 9.68164 15.3526 9.20823 16.1071L9.20816 16.1072C8.72874 16.8723 8.393 17.5853 8.0226 18.3961L8.02241 18.3965C7.97678 18.4969 7.93104 18.6133 7.88615 18.7274C7.86675 18.7768 7.8475 18.8257 7.82849 18.8728C7.76246 19.0364 7.69384 19.1922 7.61274 19.3283C7.45155 19.5988 7.26871 19.75 7 19.75C6.73127 19.75 6.54831 19.5988 6.38562 19.3276C6.30378 19.1912 6.23422 19.0352 6.1666 18.8711C6.14919 18.8289 6.13159 18.7853 6.11382 18.7412C6.06599 18.6227 6.01697 18.5012 5.96728 18.3958C5.6056 17.5822 5.26038 16.8709 4.78204 16.1076ZM4.78204 16.1076C4.78197 16.1075 4.78191 16.1074 4.78184 16.1072L4.57 16.24L4.78215 16.1077C4.78212 16.1077 4.78208 16.1076 4.78204 16.1076ZM4.25 7.25C4.25 8.76807 5.48193 10 7 10C8.51807 10 9.75 8.76807 9.75 7.25C9.75 5.73193 8.51807 4.5 7 4.5C5.48193 4.5 4.25 5.73193 4.25 7.25Z" fill="#E19235" stroke="#FFF7E2" stroke-width="0.5"/>
</svg>
